<?xml version="1.0" encoding="UTF-8"?>
<svg version="1.1" xmlns="http://www.w3.org/2000/svg" width="32" height="32">
<path d="M0 0 C10.56 0 21.12 0 32 0 C32 10.56 32 21.12 32 32 C21.44 32 10.88 32 0 32 C0 21.44 0 10.88 0 0 Z " fill="#1D253F" transform="translate(0,0)"/>
<path d="M0 0 C3.06196838 0.52985809 4.12845019 0.83089261 6.4375 3 C7.375 5.0625 7.375 5.0625 7.375 7.0625 C5.065 6.4025 2.755 5.7425 0.375 5.0625 C0.375 7.0425 0.375 9.0225 0.375 11.0625 C1.365 10.7325 2.355 10.4025 3.375 10.0625 C3.375 11.7125 3.375 13.3625 3.375 15.0625 C0.90699953 13.91076645 -0.67283565 13.01466435 -2.625 11.0625 C-2.955 12.3825 -3.285 13.7025 -3.625 15.0625 C-4.285 15.0625 -4.945 15.0625 -5.625 15.0625 C-5.955 14.7325 -6.285 14.4025 -6.625 14.0625 C-6.955 14.7225 -7.285 15.3825 -7.625 16.0625 C-9.75 13.375 -9.75 13.375 -11.625 10.0625 C-10.56867276 3.87544042 -6.33580971 -0.44299157 0 0 Z " fill="#456580" transform="translate(16.625,6.9375)"/>
<path d="M0 0 C3.34373475 0.55728913 6.03312999 1.35173889 9 3 C7.80425671 7.38439205 6.72779359 10.27971819 3 13 C-0.5625 13.875 -0.5625 13.875 -4 14 C-7 12 -7 12 -7.75 10.25 C-8.07181166 7.35369502 -7.58124917 4.84166259 -7 2 C-6.67 2 -6.34 2 -6 2 C-6 4.64 -6 7.28 -6 10 C-5.34 10 -4.68 10 -4 10 C-4 8.35 -4 6.7 -4 5 C-1.69 6.65 0.62 8.3 3 10 C2.67 8.68 2.34 7.36 2 6 C1.34 6 0.68 6 0 6 C0 4.02 0 2.04 0 0 Z " fill="#2D3C60" transform="translate(17,12)"/>
<path d="M0 0 C0.33 0 0.66 0 1 0 C1 2.64 1 5.28 1 8 C1.66 8 2.32 8 3 8 C3 6.35 3 4.7 3 3 C5.31 4.65 7.62 6.3 10 8 C10 6.35 10 4.7 10 3 C10.66 4.32 11.32 5.64 12 7 C10.9375 8.5 10.9375 8.5 9 10 C5.56141649 10.36841966 3.09868019 10.58367385 0 8.9375 C-1.58495594 5.86664787 -0.68036707 3.27813225 0 0 Z " fill="#2C3A60" transform="translate(10,14)"/>
<path d="M0 0 C0.7425 0.804375 1.485 1.60875 2.25 2.4375 C4.75304829 4.76988591 5.7180955 5.63534394 9 6 C9 7.65 9 9.3 9 11 C6.53199953 9.84826645 4.95216435 8.95216435 3 7 C2.67 8.32 2.34 9.64 2 11 C1.34 11 0.68 11 0 11 C0 7.37 0 3.74 0 0 Z " fill="#66BAD7" transform="translate(11,11)"/>
<path d="M0 0 C6.55190069 0.5618944 6.55190069 0.5618944 9.1015625 2.95703125 C10.0390625 5.01953125 10.0390625 5.01953125 10.0390625 7.01953125 C7.7290625 6.35953125 5.4190625 5.69953125 3.0390625 5.01953125 C3.0390625 5.67953125 3.0390625 6.33953125 3.0390625 7.01953125 C2.3790625 7.01953125 1.7190625 7.01953125 1.0390625 7.01953125 C1.3690625 6.02953125 1.6990625 5.03953125 2.0390625 4.01953125 C3.0290625 4.01953125 4.0190625 4.01953125 5.0390625 4.01953125 C5.0390625 3.35953125 5.0390625 2.69953125 5.0390625 2.01953125 C4.1728125 2.32890625 4.1728125 2.32890625 3.2890625 2.64453125 C0.51938683 3.10614386 -0.60655017 2.4489807 -2.9609375 1.01953125 C-1.9609375 0.01953125 -1.9609375 0.01953125 0 0 Z " fill="#6B8CA2" transform="translate(13.9609375,6.98046875)"/>
<path d="M0 0 C0.66 0 1.32 0 2 0 C0.80425671 4.38439205 -0.27220641 7.27971819 -4 10 C-7.5625 10.9375 -7.5625 10.9375 -11 11 C-12.71484375 9.50390625 -12.71484375 9.50390625 -14 8 C-13.38511719 8.03480469 -12.77023437 8.06960937 -12.13671875 8.10546875 C-10.92435547 8.14607422 -10.92435547 8.14607422 -9.6875 8.1875 C-8.88699219 8.22230469 -8.08648437 8.25710937 -7.26171875 8.29296875 C-4.4697868 7.93131953 -3.69902517 7.19630083 -2 5 C-0.80972016 2.40084462 -0.80972016 2.40084462 0 0 Z " fill="#3E528F" transform="translate(24,15)"/>
<path d="M0 0 C2.97 0.33 5.94 0.66 9 1 C9 1.99 9 2.98 9 4 C4 3 4 3 -1 2 C-0.67 1.34 -0.34 0.68 0 0 Z " fill="#A3ACB6" transform="translate(12,7)"/>
<path d="M0 0 C1.67542976 0.28604898 3.34385343 0.61781233 5 1 C5 2.65 5 4.3 5 6 C1.83884224 4.63016497 1.0072908 4.0109362 -1 1 C-0.67 0.67 -0.34 0.34 0 0 Z " fill="#3994CB" transform="translate(15,16)"/>
</svg>
